<svg xmlns="http://www.w3.org/2000/svg" viewBox="0 0 240 240">
  <defs>
    <style>
      .tg-circle { fill: #0088cc; }
      .tg-plane { fill: white; }
    </style>
  </defs>
  <circle cx="120" cy="120" r="120" class="tg-circle"/>
  <path d="M98 175c-3.8 0-3.2-1.5-4.5-5.3l-8.5-27.8 65-39" class="tg-plane" fill-rule="evenodd"/>
  <path d="M98 175c3 0 4.3-1.4 6-3l16-15.6-20.4-12.3" class="tg-plane" fill-rule="evenodd"/>
  <path d="M99.5 144.6l48.4 35.8c5.5 3.5 9.7 1.7 11.1-5.6l20.1-94.7c1.7-7.1-2.7-9.9-7.5-7.8l-104 40.1c-7.1 2.6-7 6.5-1.3 8.1l26.5 8.3 61.2-38.6c2.9-1.8 5.5-0.8 3.3 1.2" class="tg-plane" fill-rule="evenodd"/>
</svg>
