<svg viewBox="0 0 64 64" fill="none" xmlns="http://www.w3.org/2000/svg">
  <circle cx="32" cy="32" r="32" fill="#0077FF"/>
  <path d="M32 16C23.17 16 16 23.17 16 32C16 40.83 23.17 48 32 48C40.83 48 48 40.83 48 32C48 23.17 40.83 16 32 16ZM38.5 34.5C38.5 34.5 40.87 36.75 41.5 37.62C41.62 37.79 41.63 38.02 41.49 38.19C41.29 38.44 40.87 38.62 40.52 38.62H37.85C37.58 38.62 37.35 38.47 37.07 38.17C36.6 37.65 36.17 37.14 35.48 36.38C35.18 36.07 34.85 35.95 34.51 35.95C34.02 35.95 33.6 36.38 33.6 36.91V37.97C33.6 38.37 33.37 38.62 33.01 38.62H31.18C28.47 38.62 25.91 37.07 24.55 34.9C23.32 32.99 23 30.65 23 28.13V27.22C23 26.79 23.22 26.56 23.65 26.56H26.32C26.73 26.56 26.93 26.77 26.93 27.16V28.25C26.93 29.84 27.49 31.57 28.72 32.79C29.33 33.39 30.84 34.31 32.15 34.31C32.73 34.31 33.04 33.98 33.04 33.35V31.2C33.04 30.78 32.8 30.54 32.4 30.54C32.15 30.54 31.94 30.6 31.72 30.77C31.29 31.08 30.96 31.08 30.96 30.63C30.96 30.09 31.24 29.83 31.8 29.83H33.51C33.95 29.83 34.17 30.06 34.17 30.49V33.35C34.17 33.98 34.63 34.31 35.21 34.31C36.52 34.31 38.03 33.39 38.64 32.79C39.87 31.57 40.43 29.84 40.43 28.25V27.16C40.43 26.77 40.63 26.56 41.04 26.56H43.71C44.14 26.56 44.36 26.79 44.36 27.22V28.13C44.36 30.65 44.04 32.99 42.81 34.9C41.45 37.07 38.89 38.62 36.18 38.62H34.35C33.99 38.62 33.76 38.37 33.76 37.97V36.91C33.76 36.38 33.34 35.95 32.85 35.95C32.51 35.95 32.18 36.07 31.88 36.38C31.19 37.14 30.76 37.65 30.29 38.17C30.01 38.47 29.78 38.62 29.51 38.62H26.84C26.49 38.62 26.07 38.44 25.87 38.19C25.73 38.02 25.74 37.79 25.86 37.62C26.49 36.75 28.86 34.5 28.86 34.5C29.31 34.05 29.58 33.77 29.58 33.16C29.58 32.55 29.31 32.27 28.86 31.82L26.49 29.53C25.86 28.94 25.53 28.62 25.53 28.04C25.53 27.46 25.84 27.14 26.49 26.56H29.15C29.42 26.56 29.65 26.71 29.93 27.01C30.4 27.53 30.83 28.04 31.52 28.8C31.82 29.11 32.15 29.23 32.49 29.23C32.98 29.23 33.4 28.8 33.4 28.27V27.21C33.4 26.81 33.63 26.56 33.99 26.56H35.82C36.25 26.56 36.47 26.79 36.47 27.22V28.13C36.47 30.65 36.15 32.99 34.92 34.9C33.56 37.07 31 38.62 28.29 38.62H25.62C25.27 38.62 24.85 38.44 24.65 38.19C24.51 38.02 24.52 37.79 24.64 37.62C25.27 36.75 27.64 34.5 27.64 34.5C28.09 34.05 28.36 33.77 28.36 33.16C28.36 32.55 28.09 32.27 27.64 31.82L25.27 29.53C24.64 28.94 24.31 28.62 24.31 28.04C24.31 27.46 24.62 27.14 25.27 26.56" fill="white"/>
</svg>
